<svg viewBox="0 0 132 45" xmlns="http://www.w3.org/2000/svg"><g fill="none" fill-rule="evenodd" transform="translate(.310688 -.292875)"><path d="m125.331366 14.8003274-7.400164-1.7178952-1.321458-.5285831-33.9614653.2642916v16.3860767l42.6830873.1321458z" fill="#fff"/><path d="m111.456059 27.7506138c.396437-1.3214578.264291-2.6429156-.396438-3.4357903-.660728-.7928747-1.585749-1.3214578-2.775061-1.4536036l-22.9933657-.2642915c-.1321457 0-.2642915-.1321458-.3964373-.1321458-.1321458-.1321458-.1321458-.2642916 0-.3964373.1321458-.2642916.2642916-.3964374.5285831-.3964374l23.1255119-.2642915c2.775061-.1321458 5.682268-2.3786241 6.739434-5.0215397l1.321458-3.4357903c0-.1321457.132146-.2642915 0-.3964373-1.453603-6.73943478-7.532309-11.76097442-14.668181-11.76097442-6.6072894 0-12.2895579 4.22866496-14.2717446 10.17522502-1.3214578-.9250204-2.9072072-1.45360354-4.7572481-1.32145776-3.1714987.26429156-5.6822685 2.90720716-6.0787059 6.07870586-.1321458.7928747 0 1.5857494.1321458 2.3786241-5.1536854.1321457-9.3823504 4.3608107-9.3823504 9.6466419 0 .5285831 0 .9250205.1321458 1.4536036 0 .2642915.2642916.3964373.3964373.3964373h42.4187951c.264292 0 .528583-.1321458.528583-.3964373z" fill="#f48120"/><path d="m118.724077 12.9502864h-.660729c-.132146 0-.264292.1321458-.396438.2642916l-.92502 3.1714987c-.396437 1.3214578-.264292 2.6429156.396437 3.4357903s1.58575 1.3214578 2.775062 1.4536036l4.889394.2642915c.132145 0 .264291.1321458.396437.1321458.132146.1321458.132146.2642916 0 .3964374-.132146.2642915-.264292.3964373-.528583.3964373l-5.02154.2642916c-2.775061.1321457-5.682268 2.378624-6.739435 5.0215396l-.264291 1.189312c-.132146.1321458 0 .3964374.264291.3964374h17.443243c.264292 0 .396438-.1321458.396438-.3964374.264291-1.0571662.528583-2.2464782.528583-3.4357903 0-6.8715805-5.682269-12.5538491-12.553849-12.5538491" fill="#faad3f"/><g fill="#404041" transform="translate(0 34.036445)"><path d="m14.593202.3214578h2.9072072v7.9287468h5.0215396v2.5107698h-7.9287468z"/><path d="m25.5613018 5.47514322c0-3.03935294 2.378624-5.41797698 5.6822685-5.41797698s5.5501228 2.37862404 5.5501228 5.41797698-2.3786241 5.41797698-5.6822686 5.41797698c-3.1714987 0-5.5501227-2.37862404-5.5501227-5.41797698m8.3251841 0c0-1.58574936-1.0571662-2.90720716-2.6429156-2.90720716-1.5857493 0-2.6429156 1.3214578-2.6429156 2.77506138s1.0571663 2.77506138 2.6429156 2.77506138c1.5857494.26429156 2.6429156-1.05716624 2.6429156-2.6429156"/><path d="m40.3616291 6.13587212v-5.81441432h2.9072072v5.81441432c0 1.45360358.7928747 2.24647826 1.9821867 2.24647826s1.9821867-.6607289 1.9821867-2.11433248v-5.9465601h2.9072072v5.81441432c0 3.43579028-1.9821867 4.88939388-4.8893939 4.88939388-3.0393529-.1321458-4.8893939-1.58574938-4.8893939-4.88939388"/><path d="m54.5012276.3214578h4.0965192c3.7000818 0 5.9465601 2.11433248 5.9465601 5.15368542s-2.2464783 5.28583118-5.9465601 5.28583118h-3.9643734v-10.4395166zm4.0965192 7.79660102c1.7178951 0 2.9072071-.92502046 2.9072071-2.6429156s-1.189312-2.6429156-2.9072071-2.6429156h-1.189312v5.2858312z"/><path d="m71.5480332 4.55012276h4.8893939v2.37862404h-4.8893939v3.8322276h-2.9072071v-10.4395166h8.3251841v2.51076982h-5.417977z"/><path d="m81.0625294.3214578h2.9072071v7.9287468h5.0215397v2.5107698h-7.9287468z"/><path d="m96.5235856.18931202h2.9072072l4.4929562 10.57166238h-3.171498l-.7928751-1.8500409h-4.0965192l-.7928746 1.8500409h-3.039353zm2.6429156 6.47514322-1.189312-2.90720716-1.189312 2.90720716z"/><path d="m107.623831.3214578h4.889394c1.585749 0 2.642916.39643734 3.43579 1.18931202.660729.6607289.925021 1.45360358.925021 2.37862404 0 1.58574936-.792875 2.6429156-2.114333 3.17149872l2.51077 3.70008182h-3.303644l-2.114333-3.1714987h-1.321458v3.1714987h-2.907207zm4.757248 5.02153964c.925021 0 1.58575-.52858312 1.58575-1.18931202 0-.79287468-.660729-1.18931202-1.58575-1.18931202h-1.850041v2.51076982h1.850041z"/><path d="m120.970555.3214578h8.45733v2.37862404h-5.550123v1.58574936h5.02154v2.37862404h-5.02154v1.58574936h5.682269v2.5107698h-8.589476z"/><path d="m8.2502046 6.79660102c-.39643734.92502046-1.3214578 1.58574936-2.37862404 1.58574936-1.58574936 0-2.6429156-1.3214578-2.6429156-2.77506138s1.05716624-2.77506138 2.6429156-2.77506138c1.18931202 0 2.11433248.79287468 2.51076982 1.71789514h3.03935292c-.5285831-2.51076982-2.64291558-4.36081074-5.55012274-4.36081074-3.17149872 0-5.68226854 2.37862404-5.68226854 5.41797698s2.37862404 5.417977 5.55012276 5.417977c2.77506138 0 4.88939382-1.85004094 5.55012272-4.22866498z"/></g></g></svg>